# xmcd CD database file
#
# Track frame offsets:
#	150
#	10114
#	34180
#	53038
#	77458
#	103985
#	119263
#	139288
#	154213
#	168123
#	186988
#	208442
#	216163
#	228125
#	251335
#	269263
#	281213
#	296813
#	316173
#
# Disc length: 4518 seconds
#
# Revision: 6
# Processed by: cddbd v1.5.2PL0 Copyright (c) Steve Scherf et al.
# Submitted via: CDex 1.70beta3
#
DISCID=1811a413
DTITLE=John Williams - Fantasy ～MOVIE HITS～
DYEAR=2003
DGENRE=Soundtrack
TTITLE0=Prologue
TTITLE1=Harry's Wondrous World
TTITLE2=Faith Hill - Baby You Belong
TTITLE3=City of Prague Philharmonic Orchestra - Main Theme
TTITLE4=City of Prague Philharmonic Orchestra - The Fellowship
TTITLE5=Flying
TTITLE6=Theme from Superman (Main Title)
TTITLE7=Alan Silvestri - Back to the Future
TTITLE8=Smash Mouth - I'm a Believer
TTITLE9=Dan Hartman - I Can Dream About You
TTITLE10=Seal - This Could Be Heaven
TTITLE11=Karl Bhm and Berlin Philharmonic - Also sprach Zarathustra
TTITLE12=Danny Elfman - Introduction (Titles)
TTITLE13=The Raiders March
TTITLE14=Jerry Goldsmith - Star Trek: The Motion Picture End Title
TTITLE15=Danny Elfman - The Batman Theme
TTITLE16=Theme from Jurassic Park
TTITLE17=Hans Zimmer and Lisa Gerrard - Now We Are Free
TTITLE18=Alan Silvestri - End Credits Medley
EXTD=YEAR: 2003
EXTT0=
EXTT1=
EXTT2=
EXTT3=
EXTT4=
EXTT5=
EXTT6=
EXTT7=
EXTT8=
EXTT9=
EXTT10=
EXTT11=
EXTT12=
EXTT13=
EXTT14=
EXTT15=
EXTT16=
EXTT17=
EXTT18=
PLAYORDER=
